<svg width="222" height="177" viewBox="0 0 222 177" fill="none" xmlns="http://www.w3.org/2000/svg">
<circle cx="68.5" cy="85.5" r="19" stroke="#2F9E41" stroke-width="7"/>
<path d="M97.3243 131.171C93.1062 110.5 78.9838 105.519 71.0809 106.136C71.026 106.14 70.9706 106.14 70.9156 106.136C48.02 104.294 39.6231 121.646 38.1108 131.283C38.0383 131.745 38.3114 132.184 38.7538 132.336C59.3017 139.382 85.2593 135.417 96.6324 132.315C97.1292 132.179 97.4273 131.675 97.3243 131.171Z" stroke="#2F9E41" stroke-width="7"/>
<path d="M130 75.5H198" stroke="#2F9E41" stroke-width="7" stroke-linecap="round"/>
<path d="M130 102.5H198" stroke="#2F9E41" stroke-width="7" stroke-linecap="round"/>
<path fill-rule="evenodd" clip-rule="evenodd" d="M152 0H70C62.8203 0 57 5.8203 57 13V24H8C3.58171 24 0 27.5817 0 32V169C0 173.418 3.5817 177 7.99999 177H214C218.418 177 222 173.418 222 169V32C222 27.5817 218.418 24 214 24H165V13C165 5.8203 159.18 0 152 0ZM157.659 29C157.88 28.3745 158 27.7013 158 27V24V13C158 9.68629 155.314 7 152 7H70C66.6863 7 64 9.68629 64 13V24V27C64 27.6731 64.1108 28.3203 64.3153 28.9244C64.3238 28.9497 64.3325 28.9749 64.3414 29C65.1651 31.3304 67.3876 33 70 33H152C154.612 33 156.835 31.3304 157.659 29ZM57.1529 29C58.1149 35.2302 63.5004 40 70 40H152C158.5 40 163.885 35.2302 164.847 29H214C215.657 29 217 30.3431 217 32V169C217 170.657 215.657 172 214 172H7.99999C6.34314 172 5 170.657 5 169V32C5 30.3431 6.34315 29 8 29H57.1529Z" fill="#2F9E41"/>
</svg>
