<svg width="747" height="191" viewBox="0 0 747 191" fill="none" xmlns="http://www.w3.org/2000/svg">
<path d="M186.068 159.727V183H182.557V159.727H186.068ZM191.182 183V159.727H205.614V162.75H194.693V169.841H204.58V172.852H194.693V183H191.182ZM222.625 165.841C222.504 164.765 222.004 163.932 221.125 163.341C220.246 162.742 219.14 162.443 217.807 162.443C216.852 162.443 216.027 162.595 215.33 162.898C214.633 163.193 214.091 163.602 213.705 164.125C213.326 164.64 213.136 165.227 213.136 165.886C213.136 166.439 213.265 166.917 213.523 167.318C213.788 167.72 214.133 168.057 214.557 168.33C214.989 168.595 215.451 168.818 215.943 169C216.436 169.174 216.909 169.318 217.364 169.432L219.636 170.023C220.379 170.205 221.14 170.451 221.92 170.761C222.701 171.072 223.424 171.481 224.091 171.989C224.758 172.496 225.295 173.125 225.705 173.875C226.121 174.625 226.33 175.523 226.33 176.568C226.33 177.886 225.989 179.057 225.307 180.08C224.633 181.102 223.652 181.909 222.364 182.5C221.083 183.091 219.534 183.386 217.716 183.386C215.973 183.386 214.466 183.11 213.193 182.557C211.92 182.004 210.924 181.22 210.205 180.205C209.485 179.182 209.087 177.97 209.011 176.568H212.534C212.602 177.409 212.875 178.11 213.352 178.67C213.837 179.223 214.455 179.636 215.205 179.909C215.962 180.174 216.792 180.307 217.693 180.307C218.686 180.307 219.568 180.152 220.341 179.841C221.121 179.523 221.735 179.083 222.182 178.523C222.629 177.955 222.852 177.292 222.852 176.534C222.852 175.845 222.655 175.28 222.261 174.841C221.875 174.402 221.348 174.038 220.682 173.75C220.023 173.462 219.277 173.208 218.443 172.989L215.693 172.239C213.83 171.731 212.352 170.985 211.261 170C210.178 169.015 209.636 167.712 209.636 166.091C209.636 164.75 210 163.58 210.727 162.58C211.455 161.58 212.439 160.803 213.682 160.25C214.924 159.689 216.326 159.409 217.886 159.409C219.462 159.409 220.852 159.686 222.057 160.239C223.269 160.792 224.223 161.553 224.92 162.523C225.617 163.485 225.981 164.591 226.011 165.841H222.625ZM230.526 183V159.727H238.821C240.632 159.727 242.132 160.057 243.321 160.716C244.51 161.375 245.401 162.277 245.991 163.42C246.582 164.557 246.878 165.837 246.878 167.261C246.878 168.693 246.579 169.981 245.98 171.125C245.389 172.261 244.495 173.163 243.298 173.83C242.109 174.489 240.613 174.818 238.81 174.818H233.105V171.841H238.491C239.635 171.841 240.563 171.644 241.276 171.25C241.988 170.848 242.51 170.303 242.844 169.614C243.177 168.924 243.344 168.14 243.344 167.261C243.344 166.383 243.177 165.602 242.844 164.92C242.51 164.239 241.984 163.705 241.264 163.318C240.552 162.932 239.613 162.739 238.446 162.739H234.037V183H230.526ZM259.463 183V159.727H267.759C269.569 159.727 271.069 160.057 272.259 160.716C273.448 161.375 274.338 162.277 274.929 163.42C275.52 164.557 275.815 165.837 275.815 167.261C275.815 168.693 275.516 169.981 274.918 171.125C274.327 172.261 273.433 173.163 272.236 173.83C271.046 174.489 269.55 174.818 267.747 174.818H262.043V171.841H267.429C268.573 171.841 269.501 171.644 270.213 171.25C270.925 170.848 271.448 170.303 271.781 169.614C272.115 168.924 272.281 168.14 272.281 167.261C272.281 166.383 272.115 165.602 271.781 164.92C271.448 164.239 270.921 163.705 270.202 163.318C269.49 162.932 268.55 162.739 267.384 162.739H262.974V183H259.463ZM279.659 183V165.545H282.943V168.318H283.125C283.443 167.379 284.004 166.64 284.807 166.102C285.617 165.557 286.534 165.284 287.557 165.284C287.769 165.284 288.019 165.292 288.307 165.307C288.602 165.322 288.833 165.341 289 165.364V168.614C288.864 168.576 288.621 168.534 288.273 168.489C287.924 168.436 287.576 168.409 287.227 168.409C286.424 168.409 285.708 168.58 285.08 168.92C284.458 169.254 283.966 169.72 283.602 170.318C283.239 170.909 283.057 171.583 283.057 172.341V183H279.659ZM298.838 183.352C297.118 183.352 295.637 182.985 294.395 182.25C293.16 181.508 292.205 180.466 291.531 179.125C290.865 177.777 290.531 176.197 290.531 174.386C290.531 172.598 290.865 171.023 291.531 169.659C292.205 168.295 293.145 167.231 294.349 166.466C295.562 165.701 296.978 165.318 298.599 165.318C299.584 165.318 300.539 165.481 301.463 165.807C302.387 166.133 303.217 166.644 303.952 167.341C304.687 168.038 305.266 168.943 305.69 170.057C306.115 171.163 306.327 172.508 306.327 174.091V175.295H292.452V172.75H302.997C302.997 171.856 302.815 171.064 302.452 170.375C302.088 169.678 301.577 169.129 300.918 168.727C300.266 168.326 299.501 168.125 298.622 168.125C297.668 168.125 296.834 168.36 296.122 168.83C295.418 169.292 294.872 169.898 294.486 170.648C294.107 171.39 293.918 172.197 293.918 173.068V175.057C293.918 176.223 294.122 177.216 294.531 178.034C294.948 178.852 295.527 179.477 296.27 179.909C297.012 180.333 297.88 180.545 298.872 180.545C299.516 180.545 300.103 180.455 300.634 180.273C301.164 180.083 301.622 179.803 302.009 179.432C302.395 179.061 302.69 178.602 302.895 178.057L306.111 178.636C305.853 179.583 305.391 180.413 304.724 181.125C304.065 181.83 303.236 182.379 302.236 182.773C301.243 183.159 300.111 183.352 298.838 183.352ZM323.176 169.807L320.097 170.352C319.968 169.958 319.763 169.583 319.483 169.227C319.21 168.871 318.839 168.58 318.369 168.352C317.9 168.125 317.313 168.011 316.608 168.011C315.646 168.011 314.843 168.227 314.199 168.659C313.555 169.083 313.233 169.633 313.233 170.307C313.233 170.89 313.449 171.36 313.881 171.716C314.313 172.072 315.009 172.364 315.972 172.591L318.744 173.227C320.35 173.598 321.547 174.17 322.335 174.943C323.123 175.716 323.517 176.72 323.517 177.955C323.517 179 323.214 179.932 322.608 180.75C322.009 181.561 321.172 182.197 320.097 182.659C319.028 183.121 317.79 183.352 316.381 183.352C314.426 183.352 312.831 182.936 311.597 182.102C310.362 181.261 309.604 180.068 309.324 178.523L312.608 178.023C312.813 178.879 313.233 179.527 313.869 179.966C314.506 180.398 315.335 180.614 316.358 180.614C317.472 180.614 318.362 180.383 319.028 179.92C319.695 179.451 320.028 178.879 320.028 178.205C320.028 177.659 319.824 177.201 319.415 176.83C319.013 176.458 318.396 176.178 317.562 175.989L314.608 175.341C312.979 174.97 311.775 174.379 310.994 173.568C310.222 172.758 309.835 171.731 309.835 170.489C309.835 169.458 310.123 168.557 310.699 167.784C311.275 167.011 312.07 166.409 313.085 165.977C314.1 165.538 315.263 165.318 316.574 165.318C318.46 165.318 319.945 165.727 321.028 166.545C322.112 167.356 322.828 168.443 323.176 169.807ZM327.253 183V165.545H330.651V183H327.253ZM328.969 162.852C328.378 162.852 327.87 162.655 327.446 162.261C327.029 161.86 326.821 161.383 326.821 160.83C326.821 160.269 327.029 159.792 327.446 159.398C327.87 158.996 328.378 158.795 328.969 158.795C329.56 158.795 330.063 158.996 330.48 159.398C330.904 159.792 331.116 160.269 331.116 160.83C331.116 161.383 330.904 161.86 330.48 162.261C330.063 162.655 329.56 162.852 328.969 162.852ZM341.756 183.341C340.347 183.341 339.089 182.981 337.983 182.261C336.884 181.534 336.021 180.5 335.392 179.159C334.771 177.811 334.46 176.193 334.46 174.307C334.46 172.42 334.775 170.807 335.403 169.466C336.04 168.125 336.911 167.098 338.017 166.386C339.123 165.674 340.377 165.318 341.778 165.318C342.862 165.318 343.733 165.5 344.392 165.864C345.059 166.22 345.574 166.636 345.938 167.114C346.309 167.591 346.597 168.011 346.801 168.375H347.006V159.727H350.403V183H347.085V180.284H346.801C346.597 180.655 346.301 181.08 345.915 181.557C345.536 182.034 345.013 182.451 344.347 182.807C343.68 183.163 342.816 183.341 341.756 183.341ZM342.506 180.443C343.483 180.443 344.309 180.186 344.983 179.67C345.665 179.148 346.18 178.424 346.528 177.5C346.884 176.576 347.062 175.5 347.062 174.273C347.062 173.061 346.888 172 346.54 171.091C346.191 170.182 345.68 169.473 345.006 168.966C344.331 168.458 343.498 168.205 342.506 168.205C341.483 168.205 340.631 168.47 339.949 169C339.267 169.53 338.752 170.254 338.403 171.17C338.063 172.087 337.892 173.121 337.892 174.273C337.892 175.439 338.066 176.489 338.415 177.42C338.763 178.352 339.278 179.091 339.96 179.636C340.65 180.174 341.498 180.443 342.506 180.443ZM362.776 183.352C361.056 183.352 359.575 182.985 358.332 182.25C357.098 181.508 356.143 180.466 355.469 179.125C354.802 177.777 354.469 176.197 354.469 174.386C354.469 172.598 354.802 171.023 355.469 169.659C356.143 168.295 357.082 167.231 358.287 166.466C359.499 165.701 360.916 165.318 362.537 165.318C363.522 165.318 364.476 165.481 365.401 165.807C366.325 166.133 367.154 166.644 367.889 167.341C368.624 168.038 369.204 168.943 369.628 170.057C370.052 171.163 370.264 172.508 370.264 174.091V175.295H356.389V172.75H366.935C366.935 171.856 366.753 171.064 366.389 170.375C366.026 169.678 365.514 169.129 364.855 168.727C364.204 168.326 363.438 168.125 362.56 168.125C361.605 168.125 360.772 168.36 360.06 168.83C359.355 169.292 358.81 169.898 358.423 170.648C358.045 171.39 357.855 172.197 357.855 173.068V175.057C357.855 176.223 358.06 177.216 358.469 178.034C358.885 178.852 359.465 179.477 360.207 179.909C360.95 180.333 361.817 180.545 362.81 180.545C363.454 180.545 364.041 180.455 364.571 180.273C365.101 180.083 365.56 179.803 365.946 179.432C366.332 179.061 366.628 178.602 366.832 178.057L370.048 178.636C369.791 179.583 369.329 180.413 368.662 181.125C368.003 181.83 367.173 182.379 366.173 182.773C365.181 183.159 364.048 183.352 362.776 183.352ZM377.432 172.636V183H374.034V165.545H377.295V168.386H377.511C377.913 167.462 378.542 166.72 379.398 166.159C380.261 165.598 381.348 165.318 382.659 165.318C383.848 165.318 384.89 165.568 385.784 166.068C386.678 166.561 387.371 167.295 387.864 168.273C388.356 169.25 388.602 170.458 388.602 171.898V183H385.205V172.307C385.205 171.042 384.875 170.053 384.216 169.341C383.557 168.621 382.652 168.261 381.5 168.261C380.712 168.261 380.011 168.432 379.398 168.773C378.792 169.114 378.311 169.614 377.955 170.273C377.606 170.924 377.432 171.712 377.432 172.636ZM401.307 165.545V168.273H391.773V165.545H401.307ZM394.33 161.364H397.727V177.875C397.727 178.534 397.826 179.03 398.023 179.364C398.22 179.689 398.473 179.913 398.784 180.034C399.102 180.148 399.447 180.205 399.818 180.205C400.091 180.205 400.33 180.186 400.534 180.148C400.739 180.11 400.898 180.08 401.011 180.057L401.625 182.864C401.428 182.939 401.148 183.015 400.784 183.091C400.42 183.174 399.966 183.22 399.42 183.227C398.527 183.242 397.693 183.083 396.92 182.75C396.148 182.417 395.523 181.902 395.045 181.205C394.568 180.508 394.33 179.633 394.33 178.58V161.364ZM412.401 183.352C410.681 183.352 409.2 182.985 407.957 182.25C406.723 181.508 405.768 180.466 405.094 179.125C404.427 177.777 404.094 176.197 404.094 174.386C404.094 172.598 404.427 171.023 405.094 169.659C405.768 168.295 406.707 167.231 407.912 166.466C409.124 165.701 410.541 165.318 412.162 165.318C413.147 165.318 414.101 165.481 415.026 165.807C415.95 166.133 416.779 166.644 417.514 167.341C418.249 168.038 418.829 168.943 419.253 170.057C419.677 171.163 419.889 172.508 419.889 174.091V175.295H406.014V172.75H416.56C416.56 171.856 416.378 171.064 416.014 170.375C415.651 169.678 415.139 169.129 414.48 168.727C413.829 168.326 413.063 168.125 412.185 168.125C411.23 168.125 410.397 168.36 409.685 168.83C408.98 169.292 408.435 169.898 408.048 170.648C407.67 171.39 407.48 172.197 407.48 173.068V175.057C407.48 176.223 407.685 177.216 408.094 178.034C408.51 178.852 409.09 179.477 409.832 179.909C410.575 180.333 411.442 180.545 412.435 180.545C413.079 180.545 413.666 180.455 414.196 180.273C414.726 180.083 415.185 179.803 415.571 179.432C415.957 179.061 416.253 178.602 416.457 178.057L419.673 178.636C419.416 179.583 418.954 180.413 418.287 181.125C417.628 181.83 416.798 182.379 415.798 182.773C414.806 183.159 413.673 183.352 412.401 183.352ZM432.401 183V159.727H446.991V162.75H435.912V169.841H446.23V172.852H435.912V179.977H447.128V183H432.401ZM451.409 189.545V165.545H454.727V168.375H455.011C455.208 168.011 455.492 167.591 455.864 167.114C456.235 166.636 456.75 166.22 457.409 165.864C458.068 165.5 458.939 165.318 460.023 165.318C461.432 165.318 462.689 165.674 463.795 166.386C464.902 167.098 465.769 168.125 466.398 169.466C467.034 170.807 467.352 172.42 467.352 174.307C467.352 176.193 467.038 177.811 466.409 179.159C465.78 180.5 464.917 181.534 463.818 182.261C462.72 182.981 461.466 183.341 460.057 183.341C458.996 183.341 458.129 183.163 457.455 182.807C456.788 182.451 456.265 182.034 455.886 181.557C455.508 181.08 455.216 180.655 455.011 180.284H454.807V189.545H451.409ZM454.739 174.273C454.739 175.5 454.917 176.576 455.273 177.5C455.629 178.424 456.144 179.148 456.818 179.67C457.492 180.186 458.318 180.443 459.295 180.443C460.311 180.443 461.159 180.174 461.841 179.636C462.523 179.091 463.038 178.352 463.386 177.42C463.742 176.489 463.92 175.439 463.92 174.273C463.92 173.121 463.746 172.087 463.398 171.17C463.057 170.254 462.542 169.53 461.852 169C461.17 168.47 460.318 168.205 459.295 168.205C458.311 168.205 457.477 168.458 456.795 168.966C456.121 169.473 455.61 170.182 455.261 171.091C454.913 172 454.739 173.061 454.739 174.273ZM471.159 183V165.545H474.557V183H471.159ZM472.875 162.852C472.284 162.852 471.777 162.655 471.352 162.261C470.936 161.86 470.727 161.383 470.727 160.83C470.727 160.269 470.936 159.792 471.352 159.398C471.777 158.996 472.284 158.795 472.875 158.795C473.466 158.795 473.97 158.996 474.386 159.398C474.811 159.792 475.023 160.269 475.023 160.83C475.023 161.383 474.811 161.86 474.386 162.261C473.97 162.655 473.466 162.852 472.875 162.852ZM487.276 165.545V168.273H477.741V165.545H487.276ZM480.298 161.364H483.696V177.875C483.696 178.534 483.795 179.03 483.991 179.364C484.188 179.689 484.442 179.913 484.753 180.034C485.071 180.148 485.416 180.205 485.787 180.205C486.06 180.205 486.298 180.186 486.503 180.148C486.707 180.11 486.866 180.08 486.98 180.057L487.594 182.864C487.397 182.939 487.116 183.015 486.753 183.091C486.389 183.174 485.935 183.22 485.389 183.227C484.495 183.242 483.662 183.083 482.889 182.75C482.116 182.417 481.491 181.902 481.014 181.205C480.537 180.508 480.298 179.633 480.298 178.58V161.364ZM496.114 183.386C495.008 183.386 494.008 183.182 493.114 182.773C492.22 182.356 491.511 181.754 490.989 180.966C490.473 180.178 490.216 179.212 490.216 178.068C490.216 177.083 490.405 176.273 490.784 175.636C491.163 175 491.674 174.496 492.318 174.125C492.962 173.754 493.682 173.473 494.477 173.284C495.273 173.095 496.083 172.951 496.909 172.852C497.955 172.731 498.803 172.633 499.455 172.557C500.106 172.473 500.58 172.341 500.875 172.159C501.17 171.977 501.318 171.682 501.318 171.273V171.193C501.318 170.201 501.038 169.432 500.477 168.886C499.924 168.341 499.098 168.068 498 168.068C496.856 168.068 495.955 168.322 495.295 168.83C494.644 169.33 494.193 169.886 493.943 170.5L490.75 169.773C491.129 168.712 491.682 167.856 492.409 167.205C493.144 166.545 493.989 166.068 494.943 165.773C495.898 165.47 496.902 165.318 497.955 165.318C498.652 165.318 499.39 165.402 500.17 165.568C500.958 165.727 501.693 166.023 502.375 166.455C503.064 166.886 503.629 167.504 504.068 168.307C504.508 169.102 504.727 170.136 504.727 171.409V183H501.409V180.614H501.273C501.053 181.053 500.723 181.485 500.284 181.909C499.845 182.333 499.28 182.686 498.591 182.966C497.902 183.246 497.076 183.386 496.114 183.386ZM496.852 180.659C497.792 180.659 498.595 180.473 499.261 180.102C499.936 179.731 500.447 179.246 500.795 178.648C501.152 178.042 501.33 177.394 501.33 176.705V174.455C501.208 174.576 500.973 174.689 500.625 174.795C500.284 174.894 499.894 174.981 499.455 175.057C499.015 175.125 498.587 175.189 498.17 175.25C497.754 175.303 497.405 175.348 497.125 175.386C496.466 175.47 495.864 175.61 495.318 175.807C494.78 176.004 494.348 176.288 494.023 176.659C493.705 177.023 493.545 177.508 493.545 178.114C493.545 178.955 493.856 179.591 494.477 180.023C495.098 180.447 495.89 180.659 496.852 180.659ZM496.727 163.216L499.386 157.977H502.966L499.443 163.216H496.727ZM516.605 183.352C514.916 183.352 513.461 182.97 512.241 182.205C511.029 181.432 510.098 180.367 509.446 179.011C508.795 177.655 508.469 176.102 508.469 174.352C508.469 172.58 508.802 171.015 509.469 169.659C510.135 168.295 511.075 167.231 512.287 166.466C513.499 165.701 514.927 165.318 516.571 165.318C517.897 165.318 519.079 165.564 520.116 166.057C521.154 166.542 521.991 167.223 522.628 168.102C523.272 168.981 523.654 170.008 523.776 171.182H520.469C520.287 170.364 519.87 169.659 519.219 169.068C518.575 168.477 517.711 168.182 516.628 168.182C515.681 168.182 514.851 168.432 514.139 168.932C513.435 169.424 512.885 170.129 512.491 171.045C512.098 171.955 511.901 173.03 511.901 174.273C511.901 175.545 512.094 176.644 512.48 177.568C512.866 178.492 513.412 179.208 514.116 179.716C514.829 180.223 515.666 180.477 516.628 180.477C517.272 180.477 517.855 180.36 518.378 180.125C518.908 179.883 519.351 179.538 519.707 179.091C520.071 178.644 520.325 178.106 520.469 177.477H523.776C523.654 178.606 523.287 179.614 522.673 180.5C522.06 181.386 521.238 182.083 520.207 182.591C519.185 183.098 517.984 183.352 516.605 183.352ZM527.409 183V165.545H530.807V183H527.409ZM529.125 162.852C528.534 162.852 528.027 162.655 527.602 162.261C527.186 161.86 526.977 161.383 526.977 160.83C526.977 160.269 527.186 159.792 527.602 159.398C528.027 158.996 528.534 158.795 529.125 158.795C529.716 158.795 530.22 158.996 530.636 159.398C531.061 159.792 531.273 160.269 531.273 160.83C531.273 161.383 531.061 161.86 530.636 162.261C530.22 162.655 529.716 162.852 529.125 162.852ZM542.73 183.352C541.094 183.352 539.666 182.977 538.446 182.227C537.226 181.477 536.279 180.428 535.605 179.08C534.931 177.731 534.594 176.155 534.594 174.352C534.594 172.542 534.931 170.958 535.605 169.602C536.279 168.246 537.226 167.193 538.446 166.443C539.666 165.693 541.094 165.318 542.73 165.318C544.366 165.318 545.795 165.693 547.014 166.443C548.234 167.193 549.181 168.246 549.855 169.602C550.529 170.958 550.866 172.542 550.866 174.352C550.866 176.155 550.529 177.731 549.855 179.08C549.181 180.428 548.234 181.477 547.014 182.227C545.795 182.977 544.366 183.352 542.73 183.352ZM542.741 180.5C543.802 180.5 544.681 180.22 545.378 179.659C546.075 179.098 546.59 178.352 546.923 177.42C547.264 176.489 547.435 175.462 547.435 174.341C547.435 173.227 547.264 172.205 546.923 171.273C546.59 170.333 546.075 169.58 545.378 169.011C544.681 168.443 543.802 168.159 542.741 168.159C541.673 168.159 540.787 168.443 540.082 169.011C539.385 169.58 538.866 170.333 538.526 171.273C538.192 172.205 538.026 173.227 538.026 174.341C538.026 175.462 538.192 176.489 538.526 177.42C538.866 178.352 539.385 179.098 540.082 179.659C540.787 180.22 541.673 180.5 542.741 180.5Z" fill="white"/>
<path d="M379.514 91V40.9045H398.3C402.148 40.9045 405.377 41.622 407.986 43.057C410.612 44.492 412.593 46.4652 413.93 48.9765C415.284 51.4715 415.961 54.3089 415.961 57.4888C415.961 60.7013 415.284 63.5551 413.93 66.0501C412.577 68.5451 410.579 70.5101 407.937 71.9451C405.296 73.3638 402.042 74.0732 398.178 74.0732H385.727V66.6127H396.955C399.205 66.6127 401.048 66.2213 402.483 65.4386C403.918 64.6558 404.978 63.5795 405.663 62.2097C406.364 60.8399 406.714 59.2663 406.714 57.4888C406.714 55.7113 406.364 54.1459 405.663 52.7924C404.978 51.4389 403.91 50.3871 402.458 49.6369C401.023 48.8705 399.172 48.4873 396.906 48.4873H388.589V91H379.514ZM423.843 91V40.9045H456.425V48.5117H432.918V62.1119H454.737V69.7192H432.918V83.3927H456.62V91H423.843ZM465.683 91V40.9045H484.469C488.317 40.9045 491.546 41.622 494.155 43.057C496.781 44.492 498.762 46.4652 500.099 48.9765C501.453 51.4715 502.129 54.3089 502.129 57.4888C502.129 60.7013 501.453 63.5551 500.099 66.0501C498.746 68.5451 496.748 70.5101 494.106 71.9451C491.465 73.3638 488.211 74.0732 484.347 74.0732H471.896V66.6127H483.124C485.374 66.6127 487.217 66.2213 488.652 65.4386C490.087 64.6558 491.147 63.5795 491.832 62.2097C492.533 60.8399 492.883 59.2663 492.883 57.4888C492.883 55.7113 492.533 54.1459 491.832 52.7924C491.147 51.4389 490.079 50.3871 488.627 49.6369C487.192 48.8705 485.341 48.4873 483.075 48.4873H474.758V91H465.683ZM516.714 40.9045L529.752 80.3351H530.265L543.279 40.9045H553.258L535.598 91H524.395L506.759 40.9045H516.714ZM566.376 91.7583C563.995 91.7583 561.85 91.3343 559.942 90.4863C558.051 89.622 556.55 88.3501 555.442 86.6705C554.349 84.9908 553.803 82.9198 553.803 80.4574C553.803 78.3375 554.194 76.5845 554.977 75.1984C555.76 73.8123 556.828 72.7034 558.181 71.8717C559.535 71.0401 561.059 70.4122 562.755 69.9882C564.468 69.548 566.237 69.23 568.063 69.0343C570.265 68.806 572.05 68.6021 573.42 68.4228C574.79 68.2271 575.785 67.9335 576.404 67.5422C577.04 67.1345 577.358 66.5067 577.358 65.6587V65.5119C577.358 63.6692 576.812 62.2424 575.72 61.2313C574.627 60.2203 573.053 59.7148 570.999 59.7148C568.83 59.7148 567.109 60.1877 565.837 61.1335C564.582 62.0793 563.734 63.1963 563.293 64.4846L555.026 63.3105C555.678 61.0275 556.754 59.1195 558.255 57.5867C559.755 56.0375 561.589 54.8797 563.758 54.1132C565.927 53.3305 568.324 52.9391 570.95 52.9391C572.76 52.9391 574.562 53.1511 576.356 53.5751C578.149 53.9991 579.788 54.7003 581.272 55.6787C582.756 56.6409 583.946 57.9536 584.843 59.6169C585.757 61.2802 586.213 63.3594 586.213 65.8544V91H577.701V85.8388H577.407C576.869 86.8824 576.111 87.8609 575.132 88.7741C574.17 89.671 572.955 90.3966 571.488 90.9511C570.037 91.4892 568.332 91.7583 566.376 91.7583ZM568.675 85.2517C570.452 85.2517 571.993 84.9011 573.298 84.1999C574.603 83.4824 575.605 82.5366 576.307 81.3625C577.024 80.1884 577.383 78.9083 577.383 77.5221V73.0948C577.106 73.3231 576.633 73.5351 575.964 73.7307C575.312 73.9264 574.578 74.0976 573.763 74.2444C572.947 74.3912 572.14 74.5216 571.341 74.6358C570.542 74.7499 569.849 74.8478 569.262 74.9293C567.941 75.1087 566.759 75.4022 565.715 75.8099C564.671 76.2176 563.848 76.7883 563.245 77.5221C562.641 78.2397 562.34 79.1692 562.34 80.3107C562.34 81.9414 562.935 83.1726 564.125 84.0042C565.316 84.8359 566.832 85.2517 568.675 85.2517ZM611.457 105.872C608.277 105.872 605.545 105.44 603.262 104.576C600.979 103.728 599.145 102.586 597.759 101.151C596.373 99.7162 595.41 98.1262 594.872 96.3814L602.846 94.449C603.205 95.1828 603.727 95.9084 604.412 96.626C605.097 97.3598 606.018 97.9631 607.176 98.4361C608.35 98.9253 609.826 99.1699 611.603 99.1699C614.115 99.1699 616.194 98.5584 617.841 97.3353C619.488 96.1286 620.311 94.1391 620.311 91.3669V84.2488H619.871C619.415 85.162 618.746 86.0997 617.865 87.0618C617.001 88.0239 615.851 88.8312 614.416 89.4834C612.998 90.1357 611.212 90.4619 609.059 90.4619C606.173 90.4619 603.556 89.7851 601.208 88.4316C598.876 87.0618 597.017 85.0234 595.631 82.3164C594.261 79.5932 593.576 76.185 593.576 72.0919C593.576 67.9662 594.261 64.4846 595.631 61.6471C597.017 58.7934 598.884 56.6327 601.232 55.1651C603.58 53.6811 606.198 52.9391 609.084 52.9391C611.285 52.9391 613.096 53.3142 614.514 54.0643C615.949 54.7981 617.091 55.6869 617.939 56.7305C618.787 57.7579 619.431 58.7282 619.871 59.6414H620.36V53.4283H629.093V91.6115C629.093 94.824 628.326 97.4821 626.794 99.5857C625.261 101.689 623.165 103.263 620.507 104.307C617.849 105.35 614.832 105.872 611.457 105.872ZM611.53 83.515C613.405 83.515 615.003 83.0584 616.324 82.1452C617.645 81.232 618.648 79.9193 619.333 78.207C620.018 76.4948 620.36 74.4401 620.36 72.0429C620.36 69.6784 620.018 67.6074 619.333 65.8299C618.664 64.0524 617.67 62.6745 616.349 61.6961C615.044 60.7013 613.438 60.204 611.53 60.204C609.557 60.204 607.91 60.7176 606.589 61.745C605.268 62.7723 604.273 64.1829 603.605 65.9767C602.936 67.7542 602.602 69.7763 602.602 72.0429C602.602 74.3423 602.936 76.3562 603.605 78.0847C604.29 79.797 605.293 81.1342 606.613 82.0963C607.951 83.0421 609.589 83.515 611.53 83.515ZM648.979 91.7583C646.599 91.7583 644.454 91.3343 642.546 90.4863C640.655 89.622 639.154 88.3501 638.045 86.6705C636.953 84.9908 636.407 82.9198 636.407 80.4574C636.407 78.3375 636.798 76.5845 637.581 75.1984C638.363 73.8123 639.432 72.7034 640.785 71.8717C642.139 71.0401 643.663 70.4122 645.359 69.9882C647.071 69.548 648.841 69.23 650.667 69.0343C652.869 68.806 654.654 68.6021 656.024 68.4228C657.394 68.2271 658.389 67.9335 659.008 67.5422C659.644 67.1345 659.962 66.5067 659.962 65.6587V65.5119C659.962 63.6692 659.416 62.2424 658.323 61.2313C657.231 60.2203 655.657 59.7148 653.602 59.7148C651.434 59.7148 649.713 60.1877 648.441 61.1335C647.186 62.0793 646.338 63.1963 645.897 64.4846L637.63 63.3105C638.282 61.0275 639.358 59.1195 640.858 57.5867C642.359 56.0375 644.193 54.8797 646.362 54.1132C648.531 53.3305 650.928 52.9391 653.554 52.9391C655.364 52.9391 657.166 53.1511 658.959 53.5751C660.753 53.9991 662.392 54.7003 663.876 55.6787C665.36 56.6409 666.55 57.9536 667.447 59.6169C668.36 61.2802 668.817 63.3594 668.817 65.8544V91H660.305V85.8388H660.011C659.473 86.8824 658.715 87.8609 657.736 88.7741C656.774 89.671 655.559 90.3966 654.092 90.9511C652.64 91.4892 650.936 91.7583 648.979 91.7583ZM651.279 85.2517C653.056 85.2517 654.597 84.9011 655.902 84.1999C657.206 83.4824 658.209 82.5366 658.91 81.3625C659.628 80.1884 659.987 78.9083 659.987 77.5221V73.0948C659.709 73.3231 659.237 73.5351 658.568 73.7307C657.916 73.9264 657.182 74.0976 656.367 74.2444C655.551 74.3912 654.744 74.5216 653.945 74.6358C653.146 74.7499 652.453 74.8478 651.866 74.9293C650.545 75.1087 649.363 75.4022 648.319 75.8099C647.275 76.2176 646.452 76.7883 645.848 77.5221C645.245 78.2397 644.943 79.1692 644.943 80.3107C644.943 81.9414 645.539 83.1726 646.729 84.0042C647.919 84.8359 649.436 85.2517 651.279 85.2517ZM707.416 63.3594L699.344 64.24C699.116 63.4246 698.716 62.6582 698.145 61.9407C697.591 61.2232 696.841 60.6443 695.895 60.204C694.949 59.7637 693.791 59.5435 692.422 59.5435C690.579 59.5435 689.03 59.943 687.774 60.7421C686.535 61.5411 685.923 62.5767 685.94 63.8486C685.923 64.9412 686.323 65.8299 687.138 66.5148C687.97 67.1997 689.34 67.7623 691.247 68.2026L697.656 69.5724C701.211 70.3389 703.853 71.5537 705.581 73.2171C707.326 74.8804 708.207 77.0574 708.223 79.7481C708.207 82.1126 707.514 84.1999 706.144 86.01C704.791 87.8038 702.907 89.2062 700.494 90.2173C698.08 91.2283 695.308 91.7338 692.177 91.7338C687.578 91.7338 683.877 90.7717 681.072 88.8475C678.267 86.9069 676.596 84.2081 676.057 80.751L684.692 79.9193C685.083 81.6152 685.915 82.8954 687.187 83.7596C688.459 84.6239 690.114 85.056 692.153 85.056C694.256 85.056 695.944 84.6239 697.216 83.7596C698.504 82.8954 699.148 81.8272 699.148 80.5553C699.148 79.479 698.732 78.5903 697.901 77.8891C697.085 77.1879 695.813 76.6497 694.085 76.2747L687.676 74.9293C684.072 74.1792 681.406 72.9154 679.678 71.1379C677.949 69.3441 677.093 67.0774 677.109 64.3378C677.093 62.0222 677.721 60.0164 678.993 58.3205C680.281 56.6082 682.067 55.2874 684.35 54.3579C686.649 53.412 689.299 52.9391 692.299 52.9391C696.702 52.9391 700.167 53.8768 702.695 55.7521C705.239 57.6274 706.813 60.1632 707.416 63.3594Z" fill="white"/>
<circle cx="229.15" cy="61.3474" r="13.6328" stroke="white" stroke-width="5.0226"/>
<path d="M249.832 94.1168C246.805 79.2852 236.672 75.7115 231.002 76.1541C230.962 76.1571 230.922 76.157 230.883 76.1538C214.455 74.8327 208.43 87.2825 207.345 94.1972C207.293 94.5287 207.489 94.8442 207.806 94.953C222.55 100.008 241.175 97.1639 249.335 94.9378C249.692 94.8405 249.906 94.4789 249.832 94.1168Z" stroke="white" stroke-width="5.0226"/>
<path d="M273.277 54.1724H322.068" stroke="white" stroke-width="5.0226" stroke-linecap="round"/>
<path d="M273.277 73.5452H322.068" stroke="white" stroke-width="5.0226" stroke-linecap="round"/>
<path fill-rule="evenodd" clip-rule="evenodd" d="M289.062 0H230.226C225.074 0 220.898 4.17614 220.898 9.32768V17.2203H185.74C182.57 17.2203 180 19.7903 180 22.9605V121.26C180 124.43 182.57 127 185.74 127H333.548C336.718 127 339.288 124.43 339.288 121.26V22.9605C339.288 19.7903 336.718 17.2203 333.548 17.2203H298.39V9.32768C298.39 4.17614 294.214 0 289.062 0ZM293.122 20.8079C293.281 20.3591 293.367 19.876 293.367 19.3729V17.2203V9.32768C293.367 6.95005 291.44 5.0226 289.062 5.0226H230.226C227.848 5.0226 225.921 6.95005 225.921 9.32768V17.2203V19.3729C225.921 19.8558 226 20.3202 226.147 20.7536C226.153 20.7718 226.159 20.7899 226.166 20.8079C226.757 22.48 228.352 23.678 230.226 23.678H289.062C290.937 23.678 292.531 22.48 293.122 20.8079ZM221.008 20.8079C221.698 25.2782 225.562 28.7006 230.226 28.7006H289.062C293.726 28.7006 297.59 25.2782 298.28 20.8079H333.548C334.737 20.8079 335.701 21.7716 335.701 22.9605V121.26C335.701 122.449 334.737 123.412 333.548 123.412H185.74C184.551 123.412 183.588 122.449 183.588 121.26V22.9605C183.588 21.7716 184.551 20.8079 185.74 20.8079H221.008Z" fill="white"/>
<rect x="97.1426" y="2.15869" width="38.8571" height="38.8571" rx="4.00902" fill="white"/>
<rect x="49.6509" y="2.15869" width="38.8571" height="38.8571" rx="4.00902" fill="white"/>
<rect x="2.15869" y="49.6508" width="38.8571" height="38.8571" rx="4.00902" fill="white"/>
<rect x="2.15869" y="97.1431" width="38.8571" height="38.8571" rx="4.00902" fill="white"/>
<rect x="2.15869" y="144.635" width="38.8571" height="38.8571" rx="4.00902" fill="white"/>
<rect x="97.1426" y="97.1431" width="38.8571" height="38.8571" rx="4.00902" fill="white"/>
<rect x="49.6509" y="144.635" width="38.8571" height="38.8571" rx="4.00902" fill="white"/>
<rect x="49.6509" y="49.6508" width="38.8571" height="38.8571" rx="4.00902" fill="white"/>
<rect x="49.6509" y="97.1431" width="38.8571" height="38.8571" rx="4.00902" fill="white"/>
<circle cx="21.5873" cy="21.5873" r="21.5873" fill="#CD191E"/>
</svg>
