<svg width="512" height="512" viewBox="0 0 512 512" fill="none" xmlns="http://www.w3.org/2000/svg">
<rect width="512" height="512" rx="20" fill="#3A3A3A"/>
<path fill-rule="evenodd" clip-rule="evenodd" d="M347 356H165V157H280.818V223.333H347V356ZM214.636 314.542H189.818V347.708H214.636V314.542ZM256 314.542H231.182V347.708H256V314.542ZM322.182 314.542H297.364V347.708H322.182V314.542ZM198.091 273.083H181.545V289.667H198.091V273.083ZM264.273 273.083H247.727V289.667H264.273V273.083ZM231.182 273.083H214.636V289.667H231.182V273.083ZM305.636 273.083H289.091V289.667H305.636V273.083ZM330.455 273.083H313.909V289.667H330.455V273.083ZM198.091 239.917H181.545V256.5H198.091V239.917ZM264.273 239.917H247.727V256.5H264.273V239.917ZM231.182 239.917H214.636V256.5H231.182V239.917ZM305.636 239.917H289.091V256.5H305.636V239.917ZM330.455 239.917H313.909V256.5H330.455V239.917ZM198.091 206.75H181.545V223.333H198.091V206.75ZM264.273 206.75H247.727V223.333H264.273V206.75ZM231.182 206.75H214.636V223.333H231.182V206.75ZM198.091 173.583H181.545V190.167H198.091V173.583ZM264.273 173.583H247.727V190.167H264.273V173.583ZM231.182 173.583H214.636V190.167H231.182V173.583Z" fill="white"/>
</svg>
