<svg width="1190" height="512" viewBox="0 0 1190 512" fill="none" xmlns="http://www.w3.org/2000/svg">
<rect width="1190" height="512" rx="20" fill="#3A3A3A"/>
<path fill-rule="evenodd" clip-rule="evenodd" d="M686 356H504V157H619.818V223.333H686V356ZM553.636 314.542H528.818V347.708H553.636V314.542ZM595 314.542H570.182V347.708H595V314.542ZM661.182 314.542H636.364V347.708H661.182V314.542ZM537.091 273.083H520.545V289.667H537.091V273.083ZM603.273 273.083H586.727V289.667H603.273V273.083ZM570.182 273.083H553.636V289.667H570.182V273.083ZM644.636 273.083H628.091V289.667H644.636V273.083ZM669.455 273.083H652.909V289.667H669.455V273.083ZM537.091 239.917H520.545V256.5H537.091V239.917ZM603.273 239.917H586.727V256.5H603.273V239.917ZM570.182 239.917H553.636V256.5H570.182V239.917ZM644.636 239.917H628.091V256.5H644.636V239.917ZM669.455 239.917H652.909V256.5H669.455V239.917ZM537.091 206.75H520.545V223.333H537.091V206.75ZM603.273 206.75H586.727V223.333H603.273V206.75ZM570.182 206.75H553.636V223.333H570.182V206.75ZM537.091 173.583H520.545V190.167H537.091V173.583ZM603.273 173.583H586.727V190.167H603.273V173.583ZM570.182 173.583H553.636V190.167H570.182V173.583Z" fill="white"/>
</svg>
